<?xml version="1.0" encoding="UTF-8" standalone="no"?>
<svg
   viewBox="0 -3.268 1.8351254 1.641936"
   width="64"
   height="60"
   version="1.1"
   id="svg1"
   sodipodi:docname="bluesky.svg"
   inkscape:version="1.3.2 (091e20e, 2023-11-25, custom)"
   xmlns:inkscape="http://www.inkscape.org/namespaces/inkscape"
   xmlns:sodipodi="http://sodipodi.sourceforge.net/DTD/sodipodi-0.dtd"
   xmlns="http://www.w3.org/2000/svg"
   xmlns:svg="http://www.w3.org/2000/svg">
  <defs
     id="defs1">
    <clipPath
       clipPathUnits="userSpaceOnUse"
       id="clipPath1287">
      <path
         id="lpe_path-effect1299"
         style="fill:#ffffff;fill-opacity:1;stroke-width:0.182324"
         class="powerclip"
         d="m -3373.7299,-1917.6059 h 167.5445 v 167.5468 h -167.5445 z m 88.8865,67.4699 c 0.208,0.051 0.426,0.084 0.6419,0.094 -0.021,0.1408 -0.036,0.2865 -0.037,0.4396 0.062,0.7403 0.3675,1.2119 0.8141,1.4892 -0.013,0.01 -0.024,0.017 -0.033,0.03 -0.1905,0.2541 -0.381,0.5081 -0.5715,0.7622 -0.1061,0.1412 0.1315,0.2774 0.236,0.1381 0.1905,-0.2542 0.381,-0.5082 0.5715,-0.7623 0.013,-0.017 0.021,-0.034 0.024,-0.05 0.4482,0.1983 0.9998,0.2437 1.5785,0.1894 -0.011,0.024 -0.016,0.051 -0.011,0.082 0.072,0.3638 0.146,0.7231 0.3312,1.0488 0.087,0.1533 0.3234,0.015 0.236,-0.1381 -0.1733,-0.3045 -0.2362,-0.6439 -0.3037,-0.9834 0,-0.015 -0.011,-0.026 -0.016,-0.037 0.879,-0.1207 1.7907,-0.4467 2.4683,-0.7887 0.076,0.357 0.1291,0.7267 0.2826,1.058 0.074,0.1599 0.3098,0.021 0.2363,-0.138 -0.1508,-0.3253 -0.1932,-0.7022 -0.2688,-1.0533 0.081,-0.045 0.1576,-0.09 0.228,-0.1344 0.5189,-0.3262 1.0134,-0.7281 1.4899,-1.1585 0.1741,0.2104 0.3662,0.3971 0.5868,0.5643 0.1405,0.1066 0.2765,-0.1311 0.1379,-0.2361 -0.1955,-0.1485 -0.3702,-0.3202 -0.5244,-0.5105 0.3043,-0.2828 0.6016,-0.5747 0.8919,-0.8663 0.071,0.056 0.1503,0.1009 0.2162,0.1623 0.1291,0.1198 0.3227,-0.073 0.1934,-0.1934 -0.067,-0.062 -0.1464,-0.1068 -0.2173,-0.1632 0.2032,-0.2053 0.4043,-0.4092 0.6017,-0.6063 0.1566,-0.1566 0.3252,-0.328 0.4929,-0.5104 0.1506,0.06 0.2871,0.1478 0.4308,0.2215 0.1566,0.08 0.295,-0.1557 0.1381,-0.2361 -0.1276,-0.065 -0.2495,-0.1381 -0.3781,-0.1991 0.3109,-0.3592 0.6011,-0.7558 0.79,-1.1724 0.011,0 0.019,0.01 0.027,0.01 0.4014,0.054 0.8025,0.063 1.2071,0.064 0.1762,0 0.1762,-0.2735 0,-0.2735 -0.3797,0 -0.7562,-0.01 -1.133,-0.056 0.048,-0.1411 0.084,-0.2841 0.1027,-0.4286 0.036,-0.2844 -0.011,-0.5256 -0.1135,-0.7281 0.7826,-0.7823 2.3857,-0.7451 3.3938,-0.5515 0.1722,0.033 0.2458,-0.2305 0.072,-0.2638 -1.049,-0.2014 -2.6447,-0.2378 -3.5343,0.5056 0.2622,-0.4735 0.6639,-0.8065 1.1097,-1.0963 0.2307,-0.02 0.4702,-0.038 0.7027,-0.085 0.4003,-0.082 0.6459,-0.2679 1.1105,-0.062 0.097,0.043 0.1881,0.135 0.2945,0.159 0.2487,0.056 0.3796,0.01 0.6037,-0.1237 0.153,-0.088 0.016,-0.3243 -0.1378,-0.2362 -0.3014,0.1731 -0.9006,-0.1407 -1.2578,-0.1565 -0.1876,-0.01 -0.3826,0.019 -0.58,0.059 0.5588,-0.3325 1.1015,-0.6856 1.4531,-1.2402 0.095,-0.1496 -0.1421,-0.2865 -0.2363,-0.138 -0.4588,0.7241 -1.2433,1.0992 -1.965,1.5391 -0.098,0.017 -0.1961,0.032 -0.2924,0.038 -0.7665,0.048 -1.165,0.3649 -1.2983,1.1032 -0.2432,-0.1301 -0.53,-0.2087 -0.8263,-0.2407 0.1228,-0.2164 0.2389,-0.4448 0.4051,-0.622 0.1204,-0.1287 -0.072,-0.3225 -0.1937,-0.1934 -0.2164,0.2307 -0.3559,0.5327 -0.5226,0.8024 -0.6598,0.016 -1.3335,0.3172 -1.9656,0.6946 -0.074,-0.2478 -0.1312,-0.5097 -0.1365,-0.7652 0,-0.1761 -0.277,-0.1765 -0.2736,0 0.011,0.306 0.077,0.6212 0.1691,0.9135 -0.4831,0.3066 -0.9363,0.6417 -1.3316,0.9057 -0.1519,0.1015 -0.3167,0.199 -0.4898,0.294 -0.026,-0.096 -0.044,-0.1952 -0.064,-0.288 -0.027,-0.1253 -0.094,-0.3289 -0.047,-0.455 0.062,-0.1656 -0.203,-0.2363 -0.2638,-0.073 -0.061,0.1636 0.011,0.3915 0.038,0.5548 0.024,0.1293 0.053,0.2633 0.093,0.3914 -0.5508,0.2852 -1.1729,0.5548 -1.7814,0.8501 -0.1156,-0.1642 -0.2413,-0.3312 -0.309,-0.5186 -0.06,-0.1646 -0.3236,-0.094 -0.2636,0.073 0.075,0.2068 0.2014,0.3874 0.326,0.5674 -0.4712,0.2367 -0.9268,0.4927 -1.3274,0.7873 -0.2744,-0.2198 -0.6104,-0.3647 -0.8663,-0.6058 -0.128,-0.1208 -0.3217,0.072 -0.1934,0.1936 0.248,0.2332 0.5702,0.3768 0.839,0.5843 -0.526,0.4312 -0.9302,0.9443 -1.1035,1.5937 -0.1905,-0.01 -0.3795,-0.035 -0.566,-0.074 -0.1566,-0.033 -0.3934,-0.069 -0.5001,-0.2016 -0.1108,-0.1374 -0.3032,0.057 -0.1934,0.1933 0.1278,0.1583 0.3744,0.2124 0.5617,0.2583 z m 8.5839,-3.5007 c -0.1246,0.1245 0.069,0.3183 0.1934,0.1935 0.254,-0.2542 0.5083,-0.5081 0.7623,-0.7623 0.1249,-0.1245 -0.068,-0.3183 -0.1934,-0.1935 -0.254,0.2542 -0.5083,0.5082 -0.7623,0.7623 z m -0.7559,2.4514 h -3e-4 c 0.1624,-0.065 0.092,-0.3297 -0.072,-0.2637 -0.3358,0.1344 -0.6729,0.2657 -1.016,0.3813 -0.1666,0.056 -0.095,0.3196 0.072,0.2636 0.3432,-0.1156 0.6803,-0.2467 1.0163,-0.3812 z m -1.6573,-1.0542 c -0.1098,0.1354 0.082,0.3305 0.1934,0.1934 0.2458,-0.3037 0.5167,-0.5854 0.7622,-0.8892 0.1098,-0.1354 -0.082,-0.3305 -0.1934,-0.1934 -0.2458,0.3037 -0.5167,0.5854 -0.7622,0.8892 z m -2.8888,1.4845 c -0.1762,0 -0.1762,0.2735 0,0.2735 0.1765,0 0.1765,-0.2735 0,-0.2735 z m 0.6353,1.3336 c -0.1765,0 -0.1762,0.2735 0,0.2735 0.1762,0 0.1762,-0.2735 0,-0.2735 z m 1.116,-0.6206 5e-4,-10e-5 c 0.1712,-0.042 0.098,-0.3056 -0.073,-0.2636 -0.286,0.074 -0.5868,0.115 -0.88,0.064 -0.173,-0.03 -0.2463,0.2337 -0.073,0.2637 0.3439,0.059 0.6887,0.018 1.0255,-0.064 z m -0.2902,-1.3481 c -0.1762,0 -0.1762,0.2735 0,0.2735 0.1762,0 0.1762,-0.2735 0,-0.2735 z m 7.0916,-5.1417 c -0.385,0.096 -0.6845,0.3107 -0.7864,0.8695 0.199,-0.3566 0.4739,-0.633 0.7864,-0.8695 z" />
    </clipPath>
  </defs>
  <sodipodi:namedview
     id="namedview1"
     pagecolor="#ffffff"
     bordercolor="#000000"
     borderopacity="0.25"
     inkscape:showpageshadow="2"
     inkscape:pageopacity="0.0"
     inkscape:pagecheckerboard="0"
     inkscape:deskcolor="#d1d1d1"
     inkscape:zoom="10.6368"
     inkscape:cx="58.100181"
     inkscape:cy="39.814606"
     inkscape:window-width="1920"
     inkscape:window-height="1057"
     inkscape:window-x="1912"
     inkscape:window-y="-8"
     inkscape:window-maximized="1"
     inkscape:current-layer="svg1" />
  <path
     fill="#0085ff"
     d="m 0.40974066,-3.0832613 c 0.20618827,0.1553222 0.42800144,0.4702108 0.50941445,0.6391925 v 0.4463236 c 0,-0.00947 -0.003652,0.00127 -0.0115227,0.024366 -0.042491,0.125225 -0.20846448,0.6139557 -0.58798905,0.2232463 -0.19983682,-0.2057118 -0.1073233,-0.4114216 0.25643577,-0.4735283 -0.20809924,0.035518 -0.4420527,-0.023184 -0.50623887,-0.2533435 -0.01849145,-0.066212 -0.04996625,-0.4740341 -0.04996625,-0.5291152 0,-0.2759104 0.24109152,-0.1891861 0.38986625,-0.07714 z m 1.01882884,0 c -0.2061882,0.1553222 -0.4280014,0.4702108 -0.50941439,0.6391925 v 0.4463236 c 0,-0.00947 0.003652,0.00127 0.0115217,0.024366 0.042491,0.125225 0.20846449,0.6139557 0.58798909,0.2232463 0.199837,-0.2057108 0.1073236,-0.4114207 -0.2564355,-0.4735273 0.2080992,0.035518 0.4420526,-0.023184 0.5062388,-0.2533445 0.018492,-0.066212 0.049966,-0.4740331 0.049966,-0.5291142 0,-0.2759104 -0.2410634,-0.1891871 -0.3898664,-0.07714 z"
     id="path1"
     style="fill:#ffffff;fill-opacity:1;stroke-width:0.999999" />
</svg>
